REM DIRINDEX 1\2,1\3,1\4
REM DIRNAME cjc151,folder01,folder02,folder03
TITLE ""
FILE "099 099_TOEFL_3900.mp3" MP3
  TRACK 01 AUDIO
    TITLE "2:cjc151_4311"
    INDEX 01 00:00:00
  TRACK 02 AUDIO
    TITLE "0:"
    INDEX 01 00:01:07
  TRACK 03 AUDIO
    TITLE "3:cjc151_4312"
    INDEX 01 00:02:67
  TRACK 04 AUDIO
    TITLE "0:"
    INDEX 01 00:06:67
  TRACK 05 AUDIO
    TITLE "2:cjc151_4313"
    INDEX 01 00:08:46
  TRACK 06 AUDIO
    TITLE "0:"
    INDEX 01 00:09:53
  TRACK 07 AUDIO
    TITLE "3:cjc151_4314"
    INDEX 01 00:11:31
  TRACK 08 AUDIO
    TITLE "0:"
    INDEX 01 00:15:03
  TRACK 09 AUDIO
    TITLE "2:cjc151_4315"
    INDEX 01 00:16:53
  TRACK 10 AUDIO
    TITLE "0:"
    INDEX 01 00:19:09
  TRACK 11 AUDIO
    TITLE "3:cjc151_4316"
    INDEX 01 00:20:69
  TRACK 12 AUDIO
    TITLE "0:"
    INDEX 01 00:25:03
  TRACK 13 AUDIO
    TITLE "2:cjc151_4317"
    INDEX 01 00:26:58
  TRACK 14 AUDIO
    TITLE "0:"
    INDEX 01 00:27:57
  TRACK 15 AUDIO
    TITLE "3:cjc151_4318"
    INDEX 01 00:29:42
  TRACK 16 AUDIO
    TITLE "0:"
    INDEX 01 00:33:36
  TRACK 17 AUDIO
    TITLE "2:cjc151_4319"
    INDEX 01 00:35:15
  TRACK 18 AUDIO
    TITLE "0:"
    INDEX 01 00:36:19
  TRACK 19 AUDIO
    TITLE "3:cjc151_4320"
    INDEX 01 00:37:69
  TRACK 20 AUDIO
    TITLE "0:"
    INDEX 01 00:41:42
  TRACK 21 AUDIO
    TITLE "2:cjc151_4321"
    INDEX 01 00:43:21
  TRACK 22 AUDIO
    TITLE "0:"
    INDEX 01 00:44:32
  TRACK 23 AUDIO
    TITLE "3:cjc151_4322"
    INDEX 01 00:46:13
  TRACK 24 AUDIO
    TITLE "0:"
    INDEX 01 00:49:59
  TRACK 25 AUDIO
    TITLE "2:cjc151_4323"
    INDEX 01 00:51:36
  TRACK 26 AUDIO
    TITLE "0:"
    INDEX 01 00:52:49
  TRACK 27 AUDIO
    TITLE "3:cjc151_4324"
    INDEX 01 00:54:29
  TRACK 28 AUDIO
    TITLE "0:"
    INDEX 01 00:59:14
  TRACK 29 AUDIO
    TITLE "2:cjc151_4325"
    INDEX 01 01:00:68
  TRACK 30 AUDIO
    TITLE "0:"
    INDEX 01 01:02:10
  TRACK 31 AUDIO
    TITLE "3:cjc151_4326"
    INDEX 01 01:03:63
  TRACK 32 AUDIO
    TITLE "0:"
    INDEX 01 01:07:37
  TRACK 33 AUDIO
    TITLE "2:cjc151_4327"
    INDEX 01 01:09:16
  TRACK 34 AUDIO
    TITLE "0:"
    INDEX 01 01:10:30
  TRACK 35 AUDIO
    TITLE "3:cjc151_4328"
    INDEX 01 01:12:05
  TRACK 36 AUDIO
    TITLE "0:"
    INDEX 01 01:15:42
  TRACK 37 AUDIO
    TITLE "2:cjc151_4329"
    INDEX 01 01:17:22
  TRACK 38 AUDIO
    TITLE "0:"
    INDEX 01 01:18:13
  TRACK 39 AUDIO
    TITLE "3:cjc151_4330"
    INDEX 01 01:19:68
  TRACK 40 AUDIO
    TITLE "0:"
    INDEX 01 01:23:56
  TRACK 41 AUDIO
    TITLE "2:cjc151_4331"
    INDEX 01 01:25:33
  TRACK 42 AUDIO
    TITLE "0:"
    INDEX 01 01:26:34
  TRACK 43 AUDIO
    TITLE "3:cjc151_4332"
    INDEX 01 01:28:14
  TRACK 44 AUDIO
    TITLE "0:"
    INDEX 01 01:31:16
  TRACK 45 AUDIO
    TITLE "2:cjc151_4333"
    INDEX 01 01:32:72
  TRACK 46 AUDIO
    TITLE "0:"
    INDEX 01 01:33:66
  TRACK 47 AUDIO
    TITLE "3:cjc151_4334"
    INDEX 01 01:35:39
  TRACK 48 AUDIO
    TITLE "0:"
    INDEX 01 01:39:17
  TRACK 49 AUDIO
    TITLE "2:cjc151_4335"
    INDEX 01 01:41:09
  TRACK 50 AUDIO
    TITLE "0:"
    INDEX 01 01:42:33
  TRACK 51 AUDIO
    TITLE "3:cjc151_4336"
    INDEX 01 01:44:13
  TRACK 52 AUDIO
    TITLE "0:"
    INDEX 01 01:48:24
  TRACK 53 AUDIO
    TITLE "2:cjc151_4337"
    INDEX 01 01:50:06
  TRACK 54 AUDIO
    TITLE "0:"
    INDEX 01 01:51:05
  TRACK 55 AUDIO
    TITLE "3:cjc151_4338"
    INDEX 01 01:52:57
  TRACK 56 AUDIO
    TITLE "0:"
    INDEX 01 01:56:47
  TRACK 57 AUDIO
    TITLE "2:cjc151_4339"
    INDEX 01 01:58:25
  TRACK 58 AUDIO
    TITLE "0:"
    INDEX 01 01:59:20
  TRACK 59 AUDIO
    TITLE "3:cjc151_4340"
    INDEX 01 02:01:01
  TRACK 60 AUDIO
    TITLE "0:"
    INDEX 01 02:04:51
  TRACK 61 AUDIO
    TITLE "2:cjc151_4341"
    INDEX 01 02:06:32
  TRACK 62 AUDIO
    TITLE "0:"
    INDEX 01 02:07:41
  TRACK 63 AUDIO
    TITLE "3:cjc151_4342"
    INDEX 01 02:09:21
  TRACK 64 AUDIO
    TITLE "0:"
    INDEX 01 02:13:61
  TRACK 65 AUDIO
    TITLE "2:cjc151_4343"
    INDEX 01 02:15:45
  TRACK 66 AUDIO
    TITLE "0:"
    INDEX 01 02:16:42
  TRACK 67 AUDIO
    TITLE "3:cjc151_4344"
    INDEX 01 02:18:25
  TRACK 68 AUDIO
    TITLE "0:"
    INDEX 01 02:22:47
  TRACK 69 AUDIO
    TITLE "2:cjc151_4345"
    INDEX 01 02:24:26
  TRACK 70 AUDIO
    TITLE "0:"
    INDEX 01 02:25:35
  TRACK 71 AUDIO
    TITLE "3:cjc151_4346"
    INDEX 01 02:27:13
  TRACK 72 AUDIO
    TITLE "0:"
    INDEX 01 02:30:09
  TRACK 73 AUDIO
    TITLE "2:cjc151_4347"
    INDEX 01 02:31:65
  TRACK 74 AUDIO
    TITLE "0:"
    INDEX 01 02:32:55
  TRACK 75 AUDIO
    TITLE "3:cjc151_4348"
    INDEX 01 02:34:42
  TRACK 76 AUDIO
    TITLE "0:"
    INDEX 01 02:38:26
  TRACK 77 AUDIO
    TITLE "2:cjc151_4349"
    INDEX 01 02:40:05
  TRACK 78 AUDIO
    TITLE "0:"
    INDEX 01 02:41:13
  TRACK 79 AUDIO
    TITLE "3:cjc151_4350"
    INDEX 01 02:42:65
  TRACK 80 AUDIO
    TITLE "0:"
    INDEX 01 02:46:08
  TRACK 81 AUDIO
    TITLE "2:cjc151_4351"
    INDEX 01 02:47:60
  TRACK 82 AUDIO
    TITLE "0:"
    INDEX 01 02:48:60
  TRACK 83 AUDIO
    TITLE "3:cjc151_4352"
    INDEX 01 02:50:39
  TRACK 84 AUDIO
    TITLE "0:"
    INDEX 01 02:54:37
  TRACK 85 AUDIO
    TITLE "2:cjc151_4353"
    INDEX 01 02:56:28
  TRACK 86 AUDIO
    TITLE "0:"
    INDEX 01 02:57:65
  TRACK 87 AUDIO
    TITLE "3:cjc151_4354"
    INDEX 01 02:59:46
  TRACK 88 AUDIO
    TITLE "0:"
    INDEX 01 03:02:68
